<svg width="25" height="24" viewBox="0 0 25 24" fill="none" xmlns="http://www.w3.org/2000/svg">
<path d="M21.1562 11.9795C21.1562 8.94434 19.5156 6.15527 16.8906 4.59668C14.2246 3.0791 10.9844 3.0791 8.35938 4.59668C5.69336 6.15527 4.09375 8.94434 4.09375 11.9795C4.09375 15.0557 5.69336 17.8447 8.35938 19.4033C10.9844 20.9209 14.2246 20.9209 16.8906 19.4033C19.5156 17.8447 21.1562 15.0557 21.1562 11.9795ZM2.125 11.9795C2.125 8.24707 4.09375 4.80176 7.375 2.91504C10.6152 1.02832 14.5938 1.02832 17.875 2.91504C21.1152 4.80176 23.125 8.24707 23.125 11.9795C23.125 15.7529 21.1152 19.1982 17.875 21.085C14.5938 22.9717 10.6152 22.9717 7.375 21.085C4.09375 19.1982 2.125 15.7529 2.125 11.9795ZM14.6758 14.8506L8.76953 17.1064C7.99023 17.4346 7.16992 16.6143 7.49805 15.835L9.75391 9.92871C9.91797 9.55957 10.1641 9.31348 10.5332 9.14941L16.4395 6.89355C17.2598 6.56543 18.0391 7.34473 17.7109 8.16504L15.4551 14.0713C15.291 14.4404 15.0449 14.6865 14.6758 14.8506ZM13.9375 11.9795C13.9375 11.2822 13.3223 10.667 12.625 10.667C11.8867 10.667 11.3125 11.2822 11.3125 11.9795C11.3125 12.7178 11.8867 13.292 12.625 13.292C13.3223 13.292 13.9375 12.7178 13.9375 11.9795Z" fill="#18181B"/>
</svg>
