<svg width="5" height="18" viewBox="0 0 5 18" fill="none" xmlns="http://www.w3.org/2000/svg">
<path d="M2.625 17.1201C1.92188 17.1201 1.33594 16.7686 0.984375 16.1826C0.632812 15.6357 0.632812 14.8936 0.984375 14.3076C1.33594 13.7607 1.92188 13.3701 2.625 13.3701C3.28906 13.3701 3.875 13.7607 4.22656 14.3076C4.57812 14.8936 4.57812 15.6357 4.22656 16.1826C3.875 16.7686 3.28906 17.1201 2.625 17.1201ZM2.625 10.8701C1.92188 10.8701 1.33594 10.5186 0.984375 9.93262C0.632812 9.38574 0.632812 8.64355 0.984375 8.05762C1.33594 7.51074 1.92188 7.12012 2.625 7.12012C3.28906 7.12012 3.875 7.51074 4.22656 8.05762C4.57812 8.64355 4.57812 9.38574 4.22656 9.93262C3.875 10.5186 3.28906 10.8701 2.625 10.8701ZM0.75 2.74512C0.75 2.08105 1.10156 1.49512 1.6875 1.14355C2.23438 0.791992 2.97656 0.791992 3.5625 1.14355C4.10938 1.49512 4.5 2.08105 4.5 2.74512C4.5 3.44824 4.10938 4.03418 3.5625 4.38574C2.97656 4.7373 2.23438 4.7373 1.6875 4.38574C1.10156 4.03418 0.75 3.44824 0.75 2.74512Z" fill="#18181B"/>
</svg>
