<svg width="25" height="24" viewBox="0 0 25 24" fill="none" xmlns="http://www.w3.org/2000/svg">
<g clip-path="url(#clip0_203_621)">
<path d="M19.505 6.4575C19.1219 6.07425 18.6671 5.77023 18.1665 5.56281C17.6659 5.35539 17.1294 5.24863 16.5875 5.24863C16.0456 5.24863 15.5091 5.35539 15.0085 5.56281C14.5079 5.77023 14.0531 6.07425 13.67 6.4575L12.875 7.2525L12.08 6.4575C11.3062 5.68373 10.2568 5.24903 9.1625 5.24903C8.06822 5.24903 7.01877 5.68373 6.245 6.4575C5.47123 7.23127 5.03653 8.28072 5.03653 9.375C5.03653 10.4693 5.47123 11.5187 6.245 12.2925L7.04 13.0875L12.875 18.9225L18.71 13.0875L19.505 12.2925C19.8882 11.9094 20.1923 11.4546 20.3997 10.954C20.6071 10.4534 20.7139 9.91686 20.7139 9.375C20.7139 8.83313 20.6071 8.29657 20.3997 7.79598C20.1923 7.29539 19.8882 6.84056 19.505 6.4575Z" fill="#18181B" stroke="#18181B" stroke-width="2" stroke-linecap="round" stroke-linejoin="round"/>
</g>
<defs>
<clipPath id="clip0_203_621">
<rect width="18" height="18" fill="white" transform="translate(3.875 3)"/>
</clipPath>
</defs>
</svg>
