<svg width="25" height="24" viewBox="0 0 25 24" fill="none" xmlns="http://www.w3.org/2000/svg">
<g clip-path="url(#clip0_203_643)">
<path d="M16.125 16L20.625 20.5" stroke="#18181B" stroke-width="2"/>
</g>
<path d="M4.125 10.5C4.125 6.63401 7.25901 3.5 11.125 3.5C14.991 3.5 18.125 6.63401 18.125 10.5C18.125 14.366 14.991 17.5 11.125 17.5C7.25901 17.5 4.125 14.366 4.125 10.5Z" stroke="#18181B" stroke-width="2"/>
<line x1="16.8321" y1="15.7929" x2="21.8321" y2="20.7929" stroke="#18181B" stroke-width="2"/>
<defs>
<clipPath id="clip0_203_643">
<path d="M3.125 10.5C3.125 6.08172 6.70672 2.5 11.125 2.5C15.5433 2.5 19.125 6.08172 19.125 10.5C19.125 14.9183 15.5433 18.5 11.125 18.5C6.70672 18.5 3.125 14.9183 3.125 10.5Z" fill="white"/>
</clipPath>
</defs>
</svg>
